<?xml version="1.0" encoding="UTF-8"?>
<svg version="1.1" xmlns="http://www.w3.org/2000/svg" width="1024" height="1024">
<path d="M0 0 C63.36 0 126.72 0 192 0 C192 29.37 192 58.74 192 89 C187.05 93.95 182.1 98.9 177 104 C173.80957744 107.45013804 170.89833479 110.68507537 168.25845337 114.54916382 C162.13089136 123.47794185 155.29715943 132.02786646 144.19476318 134.10943604 C131.51554472 135.79267087 118.57160321 135.02149207 105.83746338 134.44195557 C100.54903252 134.22461437 95.25843391 134.1307015 89.96679688 134.02539062 C79.63890327 133.80214556 69.32054457 133.44525766 59 133 C58.92200653 143.797066 58.89275961 154.59307784 58.92484188 165.39041042 C58.93822887 170.40482783 58.93515716 175.41808462 58.89379883 180.43237305 C58.85446107 185.27645734 58.85923633 190.11871639 58.89392281 194.96281624 C58.89949911 196.8058881 58.88948233 198.64907859 58.86323357 200.49197197 C58.4688423 210.73668444 58.4688423 210.73668444 61.96047974 220.05960083 C64.19250098 222.29933836 66.45829232 224.13000046 69 226 C70.13778911 227.21947528 71.24872187 228.46545334 72.3125 229.75 C75.45707126 233.41500147 78.71506075 236.96140333 82 240.5 C85.83069352 244.63119772 89.61263557 248.79110694 93.30078125 253.05078125 C96.81404669 257.08094091 100.41683056 261.03206068 104 265 C108.77033937 270.28259058 113.51894407 275.57934135 118.1953125 280.9453125 C121.75639711 284.99970753 125.38444518 288.99423353 129 293 C130.4793123 294.64570244 131.95847946 296.29153535 133.4375 297.9375 C136.65322422 301.51239761 139.88539909 305.07173123 143.125 308.625 C146.53486474 312.37112258 149.89978972 316.14940512 153.22265625 319.97265625 C156.05432947 323.20263076 158.94202507 326.38190656 161.8203125 329.5703125 C163.69145094 331.6560618 165.53924831 333.75817628 167.375 335.875 C170.35916686 339.30332192 173.42188484 342.65620801 176.5 346 C180.14162671 349.95594108 183.73499373 353.94561478 187.2578125 358.0078125 C189.31500399 360.36020635 191.40596915 362.68034966 193.5 365 C196.93289102 368.80322002 200.32643307 372.63712323 203.6875 376.50390625 C204.43549316 377.35652941 205.19798378 378.19798378 206 379 C208.73805204 379.12516637 211.45211719 379.18607673 214.19165039 379.20532227 C215.05011063 379.21522186 215.90857086 379.22512146 216.79304504 379.23532104 C219.64455359 379.26703309 222.49607882 379.29173164 225.34765625 379.31640625 C227.31921331 379.33696741 229.29076588 379.35796365 231.26231384 379.37937927 C236.46221285 379.43468653 241.6621522 379.4840575 246.86212158 379.53222656 C252.16397714 379.58237857 257.4657738 379.63809744 262.76757812 379.69335938 C273.17833515 379.80104673 283.58914323 379.90246805 294 380 C294 379.34 294 378.68 294 378 C293.34 378 292.68 378 292 378 C290.66015625 376.671875 290.66015625 376.671875 289.0625 374.75 C285.95430992 371.09025218 282.75730808 367.52690136 279.5 364 C274.30627035 358.3542623 269.23447358 352.62270894 264.2578125 346.78515625 C258.67884456 340.24541613 253.04393048 333.78607465 247.234375 327.44921875 C244.70597628 324.67770476 242.23816 321.85872997 239.77734375 319.02734375 C237.70640513 316.66510827 235.60487152 314.33204147 233.5 312 C232.74847656 311.1646875 231.99695313 310.329375 231.22265625 309.46875 C229.7755913 307.8614652 228.32523307 306.25713732 226.87109375 304.65625 C225.91396484 303.58890625 225.91396484 303.58890625 224.9375 302.5 C224.36902344 301.8709375 223.80054688 301.241875 223.21484375 300.59375 C222 299 222 299 222 297 C227.28 296.67 232.56 296.34 238 296 C236.63875 294.453125 236.63875 294.453125 235.25 292.875 C233.83286514 291.25040829 232.41629023 289.6253281 231 288 C230.50193848 287.43216797 230.00387695 286.86433594 229.49072266 286.27929688 C227.84304524 284.39877935 226.20235781 282.51233783 224.5625 280.625 C223.74604004 279.6966333 223.74604004 279.6966333 222.91308594 278.74951172 C219 274.22741909 219 274.22741909 219 272 C236.82 272 254.64 272 273 272 C273 280.25 273 288.5 273 297 C262.44 297 251.88 297 241 297 C246.81372162 304.4949281 246.81372162 304.4949281 253 311.5625 C258.00298432 317.00117965 262.89285766 322.51540123 267.67578125 328.1484375 C273.22417574 334.67304877 278.8651536 341.06696554 284.71630859 347.32177734 C287.72054404 350.55371047 290.56036814 353.85945067 293.3125 357.3125 C297.76685623 362.86619461 302.60448744 368.01355463 307.5090332 373.16723633 C325 391.56670438 325 391.56670438 325 394 C308.72737054 394.25738046 292.45540479 394.4511376 276.18122959 394.56993389 C268.62411374 394.62656903 261.06826509 394.70372485 253.51196289 394.82983398 C246.92294935 394.93974701 240.33485365 395.01050261 233.7449488 395.03497344 C230.25756163 395.04927195 226.77279918 395.08266803 223.28625679 395.16303062 C219.38639668 395.25218419 215.4890636 395.25387254 211.58813477 395.2487793 C210.44229919 395.28832733 209.29646362 395.32787537 208.11590576 395.36862183 C203.09741252 395.29786914 200.17122903 395.05660218 196.35969353 391.61809731 C194.07422289 388.83209606 192.03749067 385.96969024 190 383 C188.72270492 381.54450766 187.42277931 380.10802898 186.0859375 378.70703125 C185.46976563 378.05669922 184.85359375 377.40636719 184.21875 376.73632812 C183.6103125 376.10146484 183.001875 375.46660156 182.375 374.8125 C178.0176587 370.24093795 173.7510452 365.62096853 169.61181641 360.8503418 C167.44647081 358.36455654 165.22622798 355.9312753 163 353.5 C159.56735239 349.73649479 156.1844499 345.93870649 152.84375 342.09375 C150.59123543 339.53580973 148.29682908 337.0182102 146 334.5 C142.54424587 330.71065874 139.1347711 326.88916302 135.76953125 323.01953125 C132.22421912 318.97333617 128.60477095 314.99316378 125 311 C122.75203023 308.50312008 120.50491993 306.00546849 118.2578125 303.5078125 C116.73291756 301.81407106 115.20684598 300.12138831 113.6796875 298.4296875 C110.30087292 294.68435744 106.93104035 290.93481793 103.625 287.125 C100.17148439 283.15747276 96.6099606 279.2915236 93.04736328 275.42236328 C89.93414956 272.0355544 86.88755462 268.60102456 83.875 265.125 C81.45449925 262.38176582 78.97799358 259.69115432 76.5 257 C72.89987244 253.09018405 69.35582395 249.14133532 65.875 245.125 C62.98869372 241.85385288 60.02403072 238.65480306 57.06884766 235.44604492 C53.736051 231.82074526 50.46460348 228.14929062 47.2421875 224.42578125 C46.51888012 223.59556994 45.7785963 222.7785963 45 222 C44.90472963 220.65927183 44.8781123 219.31357497 44.87974548 217.96946716 C44.87837082 217.10143463 44.87699615 216.2334021 44.87557983 215.33906555 C44.88097275 213.89976936 44.88097275 213.89976936 44.88647461 212.43139648 C44.88632858 211.42663269 44.88618256 210.4218689 44.8860321 209.38665771 C44.8867317 206.04811483 44.89452626 202.70962695 44.90234375 199.37109375 C44.90420776 197.06323782 44.90563174 194.75538149 44.90663147 192.44752502 C44.91045796 186.35982174 44.92028935 180.27214214 44.93133545 174.18444824 C44.94154677 167.97778646 44.94612849 161.77112087 44.95117188 155.56445312 C44.9619115 143.37629165 44.97898948 131.18814779 45 119 C46.15225067 119.06297272 47.30450134 119.12594543 48.4916687 119.19082642 C59.51592863 119.76974323 70.53369812 120.15664876 81.57122612 120.37046242 C87.24425147 120.48614332 92.90003124 120.66196986 98.56494141 120.9921875 C123.59801173 122.39945626 142.88719679 121.38678632 163.1328125 105.2109375 C183.3244115 78.45723038 183.3244115 78.45723038 178 14 C123.88 14 69.76 14 14 14 C14 105.08 14 196.16 14 290 C9.38 290 4.76 290 0 290 C0 194.3 0 98.6 0 0 Z " fill="#0DFBF9" transform="translate(412,357)"/>
<path d="M0 0 C73.7481124 -0.28231944 73.7481124 -0.28231944 104.52148438 -0.34179688 C111.56534946 -0.35550209 118.60921346 -0.36964549 125.65307617 -0.38452148 C126.97733554 -0.38729085 126.97733554 -0.38729085 128.32834762 -0.39011616 C142.58317858 -0.42056557 156.83781199 -0.47575443 171.09252579 -0.54006957 C185.72055779 -0.60551887 200.34848634 -0.64440903 214.97665876 -0.65861946 C224.00392909 -0.6682268 233.03064126 -0.69857503 242.05773979 -0.75541527 C248.24708153 -0.79240317 254.43613452 -0.80360396 260.62557877 -0.79450964 C264.19737384 -0.79002362 267.76819335 -0.79692233 271.33981514 -0.83443832 C275.21319697 -0.87482665 279.08530809 -0.86091854 282.95887756 -0.84178162 C284.65003735 -0.87236645 284.65003735 -0.87236645 286.37536198 -0.90356916 C291.85975649 -0.83017982 295.13049407 -0.53203292 299.13062191 3.41808987 C300.11461492 4.58947227 301.07546767 5.78114031 302 7 C302.64388672 7.71027344 303.28777344 8.42054688 303.95117188 9.15234375 C304.45197266 9.74144531 304.95277344 10.33054687 305.46875 10.9375 C309.03393476 15.06770288 312.74829835 19.03944073 316.5 23 C320.85511493 27.59756463 325.11586404 32.24907314 329.26757812 37.03125 C332.10527651 40.25605268 335.05395017 43.37446222 338 46.5 C346.7651957 55.84236563 346.7651957 55.84236563 350.02636719 59.8449707 C352.05221126 62.15664917 352.05221126 62.15664917 354.92822266 64.42016602 C360.17109838 68.94827242 364.08549459 73.09301388 364.97705078 80.18261719 C365.3243806 86.07296774 365.05135912 91.92604671 364.75 97.8125 C364.68969116 99.87289001 364.63495874 101.93345116 364.5859375 103.99414062 C364.45484566 109.00038372 364.24850957 113.99826708 364 119 C359.38 119 354.76 119 350 119 C350.02731201 117.8761792 350.05462402 116.7523584 350.08276367 115.59448242 C350.17039555 111.37638256 350.1841648 107.1605654 350.17700195 102.94165039 C350.18392628 101.12506122 350.21019547 99.30842889 350.25708008 97.49243164 C350.79637174 85.23442426 350.79637174 85.23442426 345.14961243 74.87678528 C342.87617715 72.77309959 340.45471692 70.88631457 338 69 C336.81836327 67.74100379 335.66238232 66.45601303 334.5625 65.125 C331.53865897 61.58876586 328.41172122 58.1624853 325.25 54.75 C324.4758374 53.91408325 324.4758374 53.91408325 323.68603516 53.0612793 C322.63663533 51.92831193 321.58715602 50.79541817 320.53759766 49.66259766 C316.80038239 45.62156305 313.08886632 41.55687273 309.37207031 37.49707031 C307.96581209 35.96269746 306.5573956 34.43033128 305.1484375 32.8984375 C304.67349854 32.381604 304.19855957 31.86477051 303.70922852 31.33227539 C301.09639664 28.48474677 301.09639664 28.48474677 298.4598093 25.65927452 C297 24 297 24 295.37734127 21.76965433 C291.69139122 16.9547179 291.69139122 16.9547179 286.45950508 14.16471469 C283.47328934 13.85094098 280.60005813 13.81571421 277.59790039 13.87974548 C276.46808809 13.86797211 275.33827579 13.85619873 274.17422676 13.84406859 C270.39754964 13.81558652 266.62423458 13.8511222 262.84765625 13.88647461 C260.13709597 13.88414947 257.42665455 13.86826556 254.71614075 13.85293579 C248.88558395 13.82703839 243.05581124 13.83389239 237.22528076 13.86323357 C228.79556284 13.905607 220.36646091 13.89821149 211.93668556 13.87881822 C198.25894026 13.84869649 184.58153035 13.85861027 170.90380859 13.89379883 C157.62022736 13.92788743 144.33684678 13.94295724 131.05322266 13.93286133 C130.2255533 13.9322558 129.39788395 13.93165027 128.54513371 13.9310264 C122.07184711 13.92614239 115.59856165 13.92015824 109.12527633 13.91382658 C77.41662556 13.88309317 45.70883057 13.94828283 14 14 C14 63.83 14 113.66 14 165 C9.38 165 4.76 165 0 165 C0 110.55 0 56.1 0 0 Z " fill="#0DFAF7" transform="translate(327,274)"/>
<path d="M0 0 C4.62 0 9.24 0 14 0 C20.00033617 47.55167511 20.00033617 47.55167511 8.6471405 62.54551697 C1.09952409 71.32511233 -7.76717275 78.77986723 -16.99243164 85.73583984 C-20.46430175 88.43638851 -23.25131541 91.37803625 -26.07707214 94.73770142 C-32.58652887 102.39598911 -39.66972699 109.59839992 -46.65328407 116.82347107 C-49.42143993 119.68992779 -52.16601185 122.57280957 -54.86523438 125.50439453 C-74.79699062 147.10743169 -74.79699062 147.10743169 -86.24325562 147.63256836 C-90.29734954 147.44350585 -94.04087952 146.90243506 -98 146 C-93.10805613 152.31912894 -87.96821246 158.27324469 -82.50610352 164.09692383 C-78.46636049 168.42900408 -74.72908513 172.95565707 -71.01953125 177.57421875 C-68.71918767 180.33730069 -66.25657143 182.83430098 -63.67578125 185.33203125 C-61.26473573 187.73183647 -59.06251563 190.29430003 -56.84375 192.87109375 C-54.11029952 196.02730246 -51.30373009 199.11750542 -48.50390625 202.21484375 C-47 204 -47 204 -47 205 C-52.61 205.33 -58.22 205.66 -64 206 C-62.535625 207.588125 -61.07125 209.17625 -59.5625 210.8125 C-46.38842881 225.22314239 -46.38842881 225.22314239 -44 230 C-58.19 230 -72.38 230 -87 230 C-87 221.75 -87 213.5 -87 205 C-77.1 204.505 -77.1 204.505 -67 204 C-68.340625 202.515 -69.68125 201.03 -71.0625 199.5 C-73.89682337 196.35173442 -76.71790448 193.19450027 -79.5 190 C-82.13689636 186.97245233 -84.81016569 183.98062721 -87.5 181 C-92.27691887 175.70123285 -97.00309856 170.36609328 -101.609375 164.91796875 C-107.6409686 157.8018492 -113.81085202 150.87442369 -120.27954102 144.15014648 C-120.83697998 143.56434814 -121.39441895 142.9785498 -121.96875 142.375 C-122.45794922 141.86710938 -122.94714844 141.35921875 -123.45117188 140.8359375 C-125.53161359 138.36984013 -127.24490005 135.70364911 -129 133 C-127.74268066 133.10586426 -126.48536133 133.21172852 -125.18994141 133.32080078 C-98.33070217 136.11832173 -98.33070217 136.11832173 -74.40234375 126.42578125 C-68.7654498 121.31064907 -63.93081785 115.41608498 -59.45141602 109.27905273 C-53.62895419 101.32440259 -46.59687551 94.47243709 -39.61328125 87.55078125 C-38.62366159 86.56557914 -37.63434332 85.58007422 -36.64530945 84.59428406 C-33.53720832 81.49749959 -30.42515304 78.40470829 -27.3125 75.3125 C-23.69085099 71.71455105 -20.07089542 68.1149304 -16.45512962 64.51106834 C-15.01700539 63.07937691 -13.57588201 61.6507534 -12.13459778 60.22224426 C-10.81754097 58.91014229 -10.81754097 58.91014229 -9.47387695 57.5715332 C-8.31974052 56.425252 -8.31974052 56.425252 -7.14228821 55.2558136 C-1.9457751 49.99107488 -1.9457751 49.99107488 -0.45410156 43.02612305 C-0.43438293 42.06550461 -0.41466431 41.10488617 -0.39434814 40.11515808 C-0.39311951 39.0910231 -0.39189087 38.06688812 -0.390625 37.01171875 C-0.37408875 35.95338333 -0.35755249 34.89504791 -0.34051514 33.80464172 C-0.29202195 30.43220218 -0.27066054 27.06021365 -0.25 23.6875 C-0.22184154 21.39776375 -0.19191429 19.10804853 -0.16015625 16.81835938 C-0.08626212 11.2122767 -0.03669512 5.6064446 0 0 Z " fill="#0AFBF8" transform="translate(677,424)"/>
<path d="M0 0 C4.62 0 9.24 0 14 0 C14 31.68 14 63.36 14 96 C37.43 96 60.86 96 85 96 C85 75.54 85 55.08 85 34 C89.62 34 94.24 34 99 34 C99 59.08 99 84.16 99 110 C66.33 110 33.66 110 0 110 C0 73.7 0 37.4 0 0 Z " fill="#0FFAF8" transform="translate(327,641)"/>
<path d="M0 0 C4.62 0 9.24 0 14 0 C14 47.52 14 95.04 14 144 C9.38 144 4.76 144 0 144 C0 152.91 0 161.82 0 171 C-4.95 171 -9.9 171 -15 171 C-15 161.76 -15 152.52 -15 143 C-10.05 143 -5.1 143 0 143 C0 95.81 0 48.62 0 0 Z " fill="#0DFEFC" transform="translate(327,470)"/>
<path d="M0 0 C20.13 0 40.26 0 61 0 C61 10.23 61 20.46 61 31 C40.87 31 20.74 31 0 31 C0 20.77 0 10.54 0 0 Z " fill="#08FCF8" transform="translate(691,393)"/>
<path d="M0 0 C9.24 0 18.48 0 28 0 C28 9.57 28 19.14 28 29 C18.76 29 9.52 29 0 29 C0 19.43 0 9.86 0 0 Z " fill="#0AF9F7" transform="translate(275,641)"/>
<path d="M0 0 C9.24 0 18.48 0 28 0 C28 9.24 28 18.48 28 28 C18.76 28 9.52 28 0 28 C0 18.76 0 9.52 0 0 Z " fill="#0AFCF8" transform="translate(675,282)"/>
<path d="M0 0 C4.62 0 9.24 0 14 0 C14 47.52 14 95.04 14 144 C9.38 144 4.76 144 0 144 C0 152.91 0 161.82 0 171 C-4.95 171 -9.9 171 -15 171 C-15 161.76 -15 152.52 -15 143 C-5.76 143 3.48 143 13 143 C13 96.14 13 49.28 13 1 C8.71 1 4.42 1 0 1 C0 0.67 0 0.34 0 0 Z " fill="#10E6E3" transform="translate(327,470)"/>
<path d="M0 0 C7.59 0 15.18 0 23 0 C23 7.26 23 14.52 23 22 C15.41 22 7.82 22 0 22 C0 14.74 0 7.48 0 0 Z " fill="#0BFAF7" transform="translate(256,446)"/>
<path d="M0 0 C5.94 0 11.88 0 18 0 C18 9.24 18 18.48 18 28 C12.06 28 6.12 28 0 28 C0 18.76 0 9.52 0 0 Z " fill="#0BF7F6" transform="translate(426,647)"/>
<path d="M0 0 C5.94 0 11.88 0 18 0 C18 5.94 18 11.88 18 18 C12.06 18 6.12 18 0 18 C0 12.06 0 6.12 0 0 Z " fill="#0BF8F5" transform="translate(525,441)"/>
<path d="M0 0 C4.29 0 8.58 0 13 0 C13 4.29 13 8.58 13 13 C8.71 13 4.42 13 0 13 C0 8.71 0 4.42 0 0 Z " fill="#0AFAFA" transform="translate(280,348)"/>
<path d="M0 0 C1.35432675 1.31200404 2.68733482 2.64631404 4 4 C4 4.33 4 4.66 4 5 C-37.58 5 -79.16 5 -122 5 C-122 4.67 -122 4.34 -122 4 C-62.105 3.505 -62.105 3.505 -1 3 C-0.67 2.01 -0.34 1.02 0 0 Z " fill="#17CFCB" transform="translate(733,746)"/>
<path d="M0 0 C17.82 0 35.64 0 54 0 C54 0.33 54 0.66 54 1 C46.79175615 1.14282731 39.58350337 1.28519715 32.37524414 1.42724609 C29.92211705 1.47564278 27.46899203 1.52414491 25.01586914 1.57275391 C21.49365773 1.64252886 17.97143907 1.7119269 14.44921875 1.78125 C12.79910042 1.81406067 12.79910042 1.81406067 11.11564636 1.84753418 C10.09481461 1.86755493 9.07398285 1.88757568 8.0222168 1.90820312 C6.67319527 1.93485046 6.67319527 1.93485046 5.29692078 1.96203613 C3.53147629 1.99121568 1.76568561 2 0 2 C0 1.34 0 0.68 0 0 Z " fill="#0DF1F0" transform="translate(631,629)"/>
<path d="M0 0 C3.82946843 1.45255699 5.12050295 3.42895561 7 7 C4.13302508 5.71480435 2.02392288 4.42870746 0 2 C0 1.34 0 0.68 0 0 Z " fill="#0EEAEA" transform="translate(487,592)"/>
</svg>
